<svg width="30" height="30" viewBox="0 0 30 30" fill="none" xmlns="http://www.w3.org/2000/svg">
<path fill-rule="evenodd" clip-rule="evenodd" d="M30.0001 28.7496C30.0001 29.0811 29.8684 29.399 29.634 29.6335C29.3995 29.8679 29.0816 29.9996 28.7501 29.9996H13.7501C13.4185 29.9996 13.1006 29.8679 12.8662 29.6335C12.6318 29.399 12.5001 29.0811 12.5001 28.7496C12.5001 28.4181 12.6318 28.1001 12.8662 27.8657C13.1006 27.6313 13.4185 27.4996 13.7501 27.4996H25.7321L0.364064 2.13358C0.139307 1.89685 0.0158923 1.5817 0.0201249 1.2553C0.0243576 0.928896 0.155902 0.617054 0.386722 0.386234C0.617542 0.155414 0.929384 0.0238693 1.25579 0.0196366C1.58219 0.015404 1.89734 0.138818 2.13406 0.363575L27.5001 25.7316V13.7496C27.5001 13.4181 27.6318 13.1001 27.8662 12.8657C28.1006 12.6313 28.4185 12.4996 28.7501 12.4996C29.0816 12.4996 29.3995 12.6313 29.634 12.8657C29.8684 13.1001 30.0001 13.4181 30.0001 13.7496V28.7496Z" fill="#F5F5F5"/>
</svg>
