<svg width="34" height="34" viewBox="0 0 34 34" fill="none" xmlns="http://www.w3.org/2000/svg">
<path d="M16.9999 0.744141C7.79159 0.744141 0.333254 8.20247 0.333254 17.4108C0.331364 20.9096 1.43128 24.3202 3.47695 27.1586C5.52262 29.9971 8.41016 32.1193 11.7299 33.2241C12.5633 33.3691 12.8749 32.8691 12.8749 32.4325C12.8749 32.0358 12.8533 30.7241 12.8533 29.3275C8.66659 30.1008 7.58325 28.3075 7.24992 27.3691C7.06159 26.8908 6.24992 25.4108 5.54159 25.0158C4.95825 24.7025 4.12492 23.9325 5.51992 23.9108C6.83325 23.8908 7.76992 25.1191 8.08325 25.6191C9.58325 28.1408 11.9799 27.4325 12.9366 26.9941C13.0833 25.9108 13.5199 25.1825 13.9999 24.7658C10.2916 24.3491 6.41659 22.9108 6.41659 16.5358C6.41659 14.7241 7.06159 13.2241 8.12492 12.0575C7.95825 11.6408 7.37492 9.93247 8.29159 7.64081C8.29159 7.64081 9.68659 7.20247 12.8749 9.34914C14.2317 8.97258 15.6335 8.78305 17.0416 8.78581C18.4583 8.78581 19.8749 8.97414 21.2083 9.34914C24.3949 7.18247 25.7916 7.64081 25.7916 7.64081C26.7083 9.93247 26.1249 11.6408 25.9583 12.0575C27.0199 13.2241 27.6666 14.7025 27.6666 16.5358C27.6666 22.9325 23.7716 24.3491 20.0633 24.7658C20.6666 25.2858 21.1883 26.2858 21.1883 27.8491C21.1883 30.0775 21.1666 31.8691 21.1666 32.4325C21.1666 32.8691 21.4799 33.3908 22.3133 33.2241C25.622 32.1073 28.4972 29.9807 30.5339 27.1439C32.5706 24.3072 33.6662 20.903 33.6666 17.4108C33.6666 8.20247 26.2083 0.744141 16.9999 0.744141Z" fill="#313031"/>
</svg>
