<svg width="28" height="30" viewBox="0 0 28 30" fill="none" xmlns="http://www.w3.org/2000/svg">
<path d="M24.3567 18.1571C22.478 17.9186 20.6366 17.4455 18.8756 16.7489C17.66 16.2701 16.4736 15.7203 15.3226 15.1024C16.4805 14.4832 17.6741 13.9334 18.8972 13.4559C20.6458 12.7485 22.4825 12.2821 24.3567 12.0693C24.7882 12.0144 25.2035 11.8706 25.5764 11.6468C25.9493 11.423 26.2717 11.1243 26.5232 10.7695C27.0001 10.0972 27.1904 9.26302 27.0523 8.45044C26.9141 7.63786 26.4589 6.91343 25.7866 6.43653C25.4537 6.20039 25.0776 6.03212 24.6797 5.94135C24.2818 5.85057 23.8699 5.83905 23.4676 5.90745C22.655 6.04559 21.9306 6.50086 21.4537 7.17313C20.3547 8.72943 19.0335 10.1163 17.5324 11.2894C16.5068 12.0736 15.4362 12.797 14.326 13.4559C14.3735 12.15 14.4965 10.8479 14.6943 9.55624C14.9911 7.7384 15.5076 5.96335 16.2325 4.27006C16.4139 3.87218 16.5078 3.43998 16.5078 3.00268C16.5078 2.56538 16.4139 2.13318 16.2325 1.73529C15.8933 1.02712 15.2945 0.476737 14.5603 0.198385C13.8261 -0.0799669 13.0129 -0.0649091 12.2895 0.240433C11.5751 0.595285 11.0279 1.21548 10.7648 1.96847C10.5016 2.72145 10.5435 3.5475 10.8813 4.27006C11.6422 6.01065 12.1598 7.84774 12.4195 9.72956C12.5744 11.0237 12.654 12.3258 12.6578 13.6292C11.5476 12.9703 10.477 12.247 9.45144 11.4627C7.94344 10.2419 6.60953 8.82052 5.4868 7.23812C5.22911 6.8953 4.90395 6.60887 4.53135 6.39649C4.15876 6.18412 3.74662 6.05028 3.32034 6.00323C2.54246 5.96936 1.78101 6.23381 1.19157 6.74254C0.602133 7.25128 0.229207 7.96589 0.148994 8.74036C0.0687804 9.51483 0.287335 10.2907 0.759998 10.9094C1.23266 11.5282 1.92375 11.9431 2.69206 12.0693C4.56718 12.2898 6.40374 12.7635 8.15156 13.4775C9.38297 13.9438 10.5841 14.4865 11.7479 15.1024C10.5893 15.7137 9.39565 16.2563 8.17322 16.7272C6.41288 17.4304 4.57155 17.9107 2.69206 18.1571C2.26015 18.2014 1.84292 18.3386 1.46898 18.5592C1.09503 18.7798 0.773218 19.0787 0.525596 19.4353C0.0924622 20.0748 -0.0823765 20.8545 0.0362694 21.6177C0.154915 22.3809 0.558238 23.0708 1.16506 23.5485C1.77188 24.0263 2.53715 24.2565 3.30685 24.1927C4.07655 24.129 4.79353 23.7761 5.31349 23.205L5.44347 23.01C6.60101 21.4876 7.94785 20.1189 9.45144 18.937C10.4696 18.153 11.533 17.4296 12.6361 16.7706C12.6004 18.0772 12.4774 19.38 12.2678 20.6702C12.0289 22.4764 11.563 24.2452 10.8813 25.9347C10.6259 26.6632 10.6558 27.4613 10.965 28.1686C11.2741 28.8759 11.8395 29.44 12.5476 29.7474C13.2557 30.0547 14.0539 30.0827 14.7817 29.8255C15.5095 29.5683 16.113 29.0452 16.4708 28.3612C16.6317 27.9769 16.7145 27.5645 16.7145 27.1479C16.7145 26.7314 16.6317 26.319 16.4708 25.9347C15.7098 24.1957 15.1992 22.3576 14.9543 20.4752C14.6932 19.1886 14.5194 17.8857 14.4343 16.5756C15.5375 17.2346 16.6009 17.958 17.619 18.7421C19.1046 19.9133 20.4367 21.2672 21.5837 22.7717C21.842 23.1158 22.1669 23.4044 22.5391 23.6202C22.9113 23.8361 23.3232 23.9749 23.7501 24.0282C24.5311 24.0702 25.2984 23.8109 25.8939 23.304C26.4895 22.797 26.8679 22.081 26.9512 21.3033C27.0345 20.5257 26.8164 19.7457 26.3418 19.1241C25.8672 18.5025 25.1722 18.0866 24.4001 17.9621L24.3567 18.1571Z" fill="#313031"/>
</svg>
