<svg width="34" height="34" viewBox="0 0 34 34" fill="none" xmlns="http://www.w3.org/2000/svg">
<path d="M0.333374 2.72232C0.333374 1.40065 1.43004 0.333984 2.78171 0.333984H31.2167C32.5717 0.333984 33.6667 1.40232 33.6667 2.72232V31.279C33.6667 32.6007 32.5717 33.6673 31.2184 33.6673H2.78337C1.43004 33.6673 0.333374 32.599 0.333374 31.279V2.72232ZM10.6317 28.239V13.184H5.62837V28.2356H10.6334L10.6317 28.239ZM8.13171 11.1307C9.87504 11.1307 10.96 9.97565 10.96 8.53065C10.93 7.05232 9.87671 5.93065 8.16504 5.93065C6.45004 5.92898 5.33337 7.05398 5.33337 8.53065C5.33337 9.97565 6.41837 11.1307 8.09837 11.1307H8.13171ZM18.3567 28.2373V19.834C18.3567 19.384 18.39 18.934 18.5234 18.6123C18.8834 17.7157 19.7067 16.784 21.09 16.784C22.9 16.784 23.6234 18.1623 23.6234 20.1873V28.2407H28.625V19.6073C28.625 14.9807 26.1584 12.8307 22.8667 12.8307C20.2134 12.8307 19.0234 14.2907 18.3567 15.3173V15.369H18.3234L18.3567 15.3173V13.184H13.3567C13.4184 14.5973 13.3567 28.2356 13.3567 28.2356H18.3567V28.2373Z" fill="#313031"/>
</svg>
