<svg width="12" height="13" viewBox="0 0 12 13" fill="none" xmlns="http://www.w3.org/2000/svg">
<g clip-path="url(#clip0_437_4839)">
<path d="M7.38582 4.69428C8.7369 6.04677 8.71836 8.21515 7.39396 9.54689C7.39147 9.54961 7.38853 9.55255 7.38582 9.55526L5.8662 11.0749C4.5259 12.4152 2.34531 12.415 1.00522 11.0749C-0.335074 9.73481 -0.335074 7.55398 1.00522 6.2139L1.84431 5.37481C2.06683 5.1523 2.45004 5.30019 2.46152 5.61465C2.47618 6.0154 2.54804 6.41804 2.68065 6.80685C2.72556 6.93851 2.69347 7.08414 2.5951 7.1825L2.29916 7.47845C1.6654 8.11221 1.64552 9.14415 2.27304 9.78411C2.90676 10.4304 3.94838 10.4342 4.58696 9.79564L6.10658 8.27625C6.74407 7.63875 6.7414 6.60835 6.10658 5.97352C6.02289 5.88999 5.93858 5.82509 5.87273 5.77975C5.82615 5.74776 5.78768 5.70533 5.76041 5.65583C5.73313 5.60634 5.7178 5.55116 5.71564 5.49469C5.70668 5.25573 5.79135 5.00949 5.98017 4.82067L6.45627 4.34455C6.58112 4.2197 6.77698 4.20437 6.92175 4.3054C7.08754 4.42117 7.24283 4.5513 7.38582 4.69428ZM10.5728 1.50711C9.23275 0.166992 7.05216 0.166811 5.71186 1.50711L4.19224 3.02673C4.18953 3.02944 4.18659 3.03238 4.1841 3.03509C2.85972 4.36684 2.84116 6.53522 4.19224 7.8877C4.33522 8.03068 4.4905 8.1608 4.65629 8.27656C4.80106 8.3776 4.99694 8.36225 5.12177 8.23742L5.59787 7.76129C5.78669 7.57247 5.87135 7.32624 5.8624 7.08728C5.86023 7.03081 5.8449 6.97563 5.81763 6.92613C5.79035 6.87664 5.75189 6.8342 5.7053 6.80221C5.63945 6.75687 5.55515 6.69197 5.47146 6.60844C4.83663 5.97361 4.83396 4.94321 5.47146 4.30572L6.99108 2.78632C7.62966 2.14774 8.67125 2.15159 9.30499 2.79786C9.93252 3.43782 9.91266 4.46976 9.27888 5.10352L8.98293 5.39946C8.88457 5.49783 8.85248 5.64346 8.89739 5.77511C9.02999 6.16393 9.10186 6.56656 9.11651 6.96732C9.12802 7.28178 9.51121 7.42967 9.73372 7.20715L10.5728 6.36806C11.9131 5.02801 11.9131 2.84718 10.5728 1.50711Z" fill="#111315"/>
</g>
<defs>
<clipPath id="clip0_437_4839">
<rect width="11.5781" height="11.5781" fill="white" transform="translate(0 0.501953)"/>
</clipPath>
</defs>
</svg>
