<svg width="34" height="34" viewBox="0 0 34 34" fill="none" xmlns="http://www.w3.org/2000/svg">
<path d="M16.9999 0.333984C12.4766 0.333984 11.9083 0.355651 10.1316 0.433984C8.35492 0.517318 7.14325 0.795651 6.08325 1.20898C4.97105 1.62752 3.96369 2.28393 3.13159 3.13232C2.28374 3.96486 1.62741 4.9721 1.20825 6.08398C0.794919 7.14232 0.514919 8.35398 0.433252 10.1257C0.354919 11.9073 0.333252 12.474 0.333252 17.0023C0.333252 21.5273 0.354919 22.094 0.433252 23.8706C0.516585 25.6473 0.794919 26.8573 1.20825 27.9173C1.62746 29.0292 2.28378 30.0364 3.13159 30.869C3.96266 31.7178 4.96959 32.3743 6.08158 32.7923C7.14325 33.204 8.35158 33.4857 10.1266 33.5673C11.9066 33.6457 12.4733 33.6673 16.9999 33.6673C21.5266 33.6673 22.0916 33.6473 23.8699 33.5673C25.6433 33.484 26.8583 33.204 27.9199 32.7923C29.0316 32.3737 30.0384 31.7173 30.8699 30.869C31.7171 30.0362 32.3729 29.029 32.7916 27.9173C33.2016 26.8573 33.4833 25.6457 33.5666 23.8706C33.6449 22.094 33.6666 21.5273 33.6666 17.0007C33.6666 12.474 33.6466 11.9073 33.5666 10.1273C33.4833 8.35398 33.2016 7.14232 32.7916 6.08398C32.3725 4.97205 31.7162 3.9648 30.8682 3.13232C30.0364 2.28359 29.029 1.62714 27.9166 1.20898C26.8549 0.795651 25.6416 0.515651 23.8683 0.433984C22.0899 0.355651 21.5249 0.333984 16.9966 0.333984H16.9999ZM15.5066 3.33898H16.9999C21.4499 3.33898 21.9783 3.35232 23.7333 3.43398C25.3583 3.50732 26.2416 3.78065 26.8299 4.00732C27.6066 4.30898 28.1633 4.67232 28.7466 5.25398C29.3299 5.83732 29.6899 6.39232 29.9916 7.17065C30.2216 7.75732 30.4916 8.64065 30.5649 10.2657C30.6466 12.0207 30.6633 12.549 30.6633 16.9973C30.6633 21.444 30.6466 21.974 30.5649 23.7306C30.4916 25.354 30.2199 26.2356 29.9916 26.824C29.7247 27.5476 29.2986 28.2021 28.7449 28.739C28.2073 29.2923 27.5523 29.7178 26.8283 29.984C26.2449 30.2123 25.3616 30.484 23.7333 30.559C21.9783 30.6373 21.4499 30.6573 16.9999 30.6573C12.5499 30.6573 12.0216 30.639 10.2649 30.559C8.63992 30.484 7.75825 30.2123 7.17159 29.984C6.44769 29.7174 5.79275 29.292 5.25492 28.739C4.70023 28.2016 4.27309 27.5466 4.00492 26.8223C3.77825 26.2356 3.50492 25.3523 3.43159 23.7273C3.35325 21.9706 3.33659 21.444 3.33659 16.9923C3.33659 12.5423 3.35325 12.0173 3.43159 10.2607C3.50659 8.63565 3.77825 7.75232 4.00659 7.16565C4.30825 6.38898 4.67159 5.83232 5.25492 5.24898C5.79232 4.69506 6.44736 4.26901 7.17159 4.00232C7.75825 3.77398 8.63992 3.50232 10.2649 3.42732C11.8033 3.35732 12.3983 3.33565 15.5049 3.33398V3.33898H15.5066ZM25.8983 6.10565C25.3678 6.10565 24.8591 6.31636 24.484 6.69144C24.109 7.06651 23.8983 7.57522 23.8983 8.10565C23.8983 8.63608 24.109 9.14479 24.484 9.51986C24.8591 9.89494 25.3678 10.1057 25.8983 10.1057C26.4287 10.1057 26.9374 9.89494 27.3125 9.51986C27.6875 9.14479 27.8983 8.63608 27.8983 8.10565C27.8983 7.57522 27.6875 7.06651 27.3125 6.69144C26.9374 6.31636 26.4287 6.10565 25.8983 6.10565ZM16.9999 8.44232C14.7297 8.40695 12.5383 9.2749 10.908 10.8552C9.27771 12.4355 8.34195 14.5987 8.30658 16.869C8.27122 19.1392 9.13916 21.3306 10.7195 22.9609C12.2998 24.5912 14.463 25.527 16.7333 25.5623C19.0035 25.5977 21.1948 24.7297 22.8251 23.1494C24.4555 21.5691 25.3912 19.4059 25.4266 17.1357C25.4619 14.8654 24.594 12.6741 23.0137 11.0438C21.4334 9.41345 19.2702 8.47768 16.9999 8.44232ZM16.9999 11.444C17.7296 11.444 18.4522 11.5877 19.1264 11.867C19.8005 12.1462 20.4131 12.5555 20.9291 13.0715C21.4451 13.5875 21.8544 14.2 22.1336 14.8742C22.4129 15.5484 22.5566 16.2709 22.5566 17.0007C22.5566 17.7304 22.4129 18.4529 22.1336 19.1271C21.8544 19.8013 21.4451 20.4138 20.9291 20.9298C20.4131 21.4458 19.8005 21.8551 19.1264 22.1343C18.4522 22.4136 17.7296 22.5573 16.9999 22.5573C15.5262 22.5573 14.1128 21.9719 13.0708 20.9298C12.0287 19.8877 11.4433 18.4744 11.4433 17.0007C11.4433 15.5269 12.0287 14.1136 13.0708 13.0715C14.1128 12.0294 15.5262 11.444 16.9999 11.444Z" fill="#313031"/>
</svg>
