<svg width="35" height="35" viewBox="0 0 35 35" fill="none" xmlns="http://www.w3.org/2000/svg">
<path d="M24.7917 17.5003C24.7917 19.4342 24.0235 21.2889 22.656 22.6563C21.2886 24.0238 19.4339 24.792 17.5 24.792C15.5661 24.792 13.7115 24.0238 12.344 22.6563C10.9766 21.2889 10.2084 19.4342 10.2084 17.5003C10.2084 15.5665 10.9766 13.7118 12.344 12.3443C13.7115 10.9769 15.5661 10.2087 17.5 10.2087C19.4339 10.2087 21.2886 10.9769 22.656 12.3443C24.0235 13.7118 24.7917 15.5665 24.7917 17.5003ZM17.5 2.91699C17.7418 2.91699 17.9736 3.01302 18.1445 3.18395C18.3154 3.35488 18.4115 3.58672 18.4115 3.82845V7.47428C18.4115 7.71602 18.3154 7.94785 18.1445 8.11878C17.9736 8.28971 17.7418 8.38574 17.5 8.38574C17.2583 8.38574 17.0265 8.28971 16.8555 8.11878C16.6846 7.94785 16.5886 7.71602 16.5886 7.47428V3.82845C16.5886 3.58672 16.6846 3.35488 16.8555 3.18395C17.0265 3.01302 17.2583 2.91699 17.5 2.91699ZM17.5 26.6149C17.6198 26.6147 17.7384 26.6382 17.849 26.6839C17.9597 26.7296 18.0603 26.7968 18.1449 26.8814C18.2296 26.9661 18.2968 27.0667 18.3425 27.1773C18.3882 27.288 18.4117 27.4066 18.4115 27.5264V31.1722C18.4115 31.4139 18.3154 31.6458 18.1445 31.8167C17.9736 31.9876 17.7418 32.0837 17.5 32.0837C17.2583 32.0837 17.0265 31.9876 16.8555 31.8167C16.6846 31.6458 16.5886 31.4139 16.5886 31.1722V27.5264C16.5884 27.4066 16.6118 27.288 16.6576 27.1773C16.7033 27.0667 16.7704 26.9661 16.8551 26.8814C16.9398 26.7968 17.0403 26.7296 17.151 26.6839C17.2617 26.6382 17.3803 26.6147 17.5 26.6149ZM32.0834 17.5003C32.0835 17.6201 32.0601 17.7387 32.0144 17.8494C31.9686 17.96 31.9015 18.0606 31.8168 18.1453C31.7321 18.2299 31.6316 18.2971 31.5209 18.3428C31.4102 18.3885 31.2916 18.412 31.1719 18.4118H27.5261C27.2843 18.4118 27.0525 18.3158 26.8816 18.1448C26.7106 17.9739 26.6146 17.7421 26.6146 17.5003C26.6146 17.2586 26.7106 17.0268 26.8816 16.8558C27.0525 16.6849 27.2843 16.5889 27.5261 16.5889H31.1719C31.2916 16.5887 31.4102 16.6121 31.5209 16.6579C31.6316 16.7036 31.7321 16.7707 31.8168 16.8554C31.9015 16.9401 31.9686 17.0406 32.0144 17.1513C32.0601 17.262 32.0835 17.3806 32.0834 17.5003ZM8.38544 17.5003C8.38544 17.7421 8.28941 17.9739 8.11848 18.1448C7.94755 18.3158 7.71571 18.4118 7.47398 18.4118H3.82815C3.58641 18.4118 3.35458 18.3158 3.18365 18.1448C3.01272 17.9739 2.91669 17.7421 2.91669 17.5003C2.91669 17.2586 3.01272 17.0268 3.18365 16.8558C3.35458 16.6849 3.58641 16.5889 3.82815 16.5889H7.47398C7.71571 16.5889 7.94755 16.6849 8.11848 16.8558C8.28941 17.0268 8.38544 17.2586 8.38544 17.5003ZM27.8119 7.18845C27.9824 7.35933 28.0782 7.59089 28.0782 7.8323C28.0782 8.07372 27.9824 8.30528 27.8119 8.47616L25.235 11.0574C25.0622 11.2211 24.8323 11.3108 24.5943 11.3075C24.3563 11.3041 24.129 11.208 23.9609 11.0395C23.7928 10.871 23.6971 10.6435 23.6943 10.4055C23.6915 10.1674 23.7818 9.93775 23.9459 9.76533L26.5227 7.18845C26.6074 7.10379 26.7079 7.03663 26.8185 6.99081C26.9291 6.94499 27.0476 6.92141 27.1673 6.92141C27.287 6.92141 27.4056 6.94499 27.5162 6.99081C27.6268 7.03663 27.7273 7.10379 27.8119 7.18845ZM11.0542 23.9462C11.1388 24.0308 11.206 24.1313 11.2518 24.2419C11.2976 24.3525 11.3212 24.471 11.3212 24.5907C11.3212 24.7105 11.2976 24.829 11.2518 24.9396C11.206 25.0502 11.1388 25.1507 11.0542 25.2353L8.47585 27.8107C8.30325 27.9733 8.07411 28.0622 7.83705 28.0585C7.59999 28.0549 7.37368 27.9591 7.20613 27.7913C7.03858 27.6236 6.94298 27.3972 6.93962 27.1601C6.93627 26.923 7.02541 26.694 7.18815 26.5216L9.76502 23.9447C9.84966 23.86 9.95015 23.7929 10.0607 23.7471C10.1713 23.7012 10.2899 23.6777 10.4096 23.6777C10.5293 23.6777 10.6479 23.7012 10.7585 23.7471C10.8691 23.7929 10.9695 23.8615 11.0542 23.9462ZM27.8119 27.8122C27.7273 27.8969 27.6268 27.964 27.5162 28.0098C27.4056 28.0557 27.287 28.0792 27.1673 28.0792C27.0476 28.0792 26.9291 28.0557 26.8185 28.0098C26.7079 27.964 26.6074 27.8969 26.5227 27.8122L23.9459 25.2353C23.7749 25.0644 23.6789 24.8325 23.6789 24.5907C23.6789 24.349 23.7749 24.1171 23.9459 23.9462C24.1168 23.7752 24.3487 23.6792 24.5904 23.6792C24.8322 23.6792 25.0641 23.7752 25.235 23.9462L27.8119 26.523C27.8966 26.6077 27.9637 26.7082 28.0095 26.8188C28.0554 26.9294 28.0789 27.0479 28.0789 27.1676C28.0789 27.2873 28.0554 27.4059 28.0095 27.5165C27.9637 27.6271 27.8966 27.7276 27.8119 27.8122ZM11.0542 11.056C10.9695 11.1406 10.8691 11.2078 10.7585 11.2536C10.6479 11.2994 10.5293 11.323 10.4096 11.323C10.2899 11.323 10.1713 11.2994 10.0607 11.2536C9.95015 11.2078 9.84966 11.1406 9.76502 11.056L7.1896 8.47616C7.09874 8.39307 7.02564 8.29244 6.97474 8.18033C6.92383 8.06823 6.89617 7.94697 6.89342 7.82387C6.89067 7.70078 6.91288 7.5784 6.95872 7.46413C7.00457 7.34986 7.07309 7.24606 7.16015 7.159C7.24721 7.07193 7.35101 7.00341 7.46528 6.95757C7.57956 6.91173 7.70193 6.88951 7.82502 6.89227C7.94812 6.89502 8.06938 6.92268 8.18149 6.97359C8.2936 7.02449 8.39423 7.09758 8.47731 7.18845L11.0542 9.76533C11.1391 9.84999 11.2064 9.95057 11.2524 10.0613C11.2983 10.172 11.322 10.2907 11.322 10.4106C11.322 10.5305 11.2983 10.6492 11.2524 10.76C11.2064 10.8707 11.1391 10.9713 11.0542 11.056Z" fill="#313031"/>
<circle cx="17.5" cy="17.4997" r="6.92708" fill="#313031" stroke="#313031" stroke-width="0.729167"/>
</svg>
