<svg width="32" height="24" viewBox="0 0 32 24" fill="none" xmlns="http://www.w3.org/2000/svg">
<path d="M0 4C0 2.93913 0.421427 1.92172 1.17157 1.17157C1.92172 0.421427 2.93913 0 4 0H28C29.0609 0 30.0783 0.421427 30.8284 1.17157C31.5786 1.92172 32 2.93913 32 4V20C32 21.0609 31.5786 22.0783 30.8284 22.8284C30.0783 23.5786 29.0609 24 28 24H4C2.93913 24 1.92172 23.5786 1.17157 22.8284C0.421427 22.0783 0 21.0609 0 20V4ZM4 2C3.46957 2 2.96086 2.21071 2.58579 2.58579C2.21071 2.96086 2 3.46957 2 4V4.43333L16 12.8333L30 4.43333V4C30 3.46957 29.7893 2.96086 29.4142 2.58579C29.0391 2.21071 28.5304 2 28 2H4ZM30 6.76667L20.5833 12.4167L30 18.21V6.76667ZM29.9333 20.5167L18.6533 13.575L16 15.1667L13.35 13.5767L2.06667 20.5167C2.1805 20.9424 2.43174 21.3185 2.78134 21.5868C3.13095 21.855 3.55935 22.0003 4 22H28C28.4399 22.0001 28.8676 21.8551 29.2168 21.5876C29.566 21.32 29.8173 20.9448 29.9317 20.52L29.9333 20.5167ZM2 18.2117L11.4167 12.4167L2 6.76667V18.2117Z" fill="#313031"/>
</svg>
