<svg width="18" height="18" viewBox="0 0 18 18" fill="none" xmlns="http://www.w3.org/2000/svg">
<path d="M9.00002 0.871094C4.39586 0.871094 0.666688 4.60026 0.666688 9.20443C0.665743 10.9538 1.2157 12.6591 2.23853 14.0783C3.26137 15.4975 4.70514 16.5587 6.36502 17.1111C6.78169 17.1836 6.93752 16.9336 6.93752 16.7153C6.93752 16.5169 6.92669 15.8611 6.92669 15.1628C4.83335 15.5494 4.29169 14.6528 4.12502 14.1836C4.03085 13.9444 3.62502 13.2044 3.27085 13.0069C2.97919 12.8503 2.56252 12.4653 3.26002 12.4544C3.91669 12.4444 4.38502 13.0586 4.54169 13.3086C5.29169 14.5694 6.49002 14.2153 6.96836 13.9961C7.04169 13.4544 7.26002 13.0903 7.50002 12.8819C5.64585 12.6736 3.70835 11.9544 3.70835 8.76693C3.70835 7.86109 4.03085 7.11109 4.56252 6.52776C4.47919 6.31943 4.18752 5.46526 4.64585 4.31943C4.64585 4.31943 5.34335 4.10026 6.93752 5.17359C7.61591 4.98531 8.31683 4.89055 9.02085 4.89193C9.72919 4.89193 10.4375 4.98609 11.1042 5.17359C12.6975 4.09026 13.3959 4.31943 13.3959 4.31943C13.8542 5.46526 13.5625 6.31943 13.4792 6.52776C14.01 7.11109 14.3334 7.85026 14.3334 8.76693C14.3334 11.9653 12.3859 12.6736 10.5317 12.8819C10.8334 13.1419 11.0942 13.6419 11.0942 14.4236C11.0942 15.5378 11.0834 16.4336 11.0834 16.7153C11.0834 16.9336 11.24 17.1944 11.6567 17.1111C13.3111 16.5527 14.7487 15.4894 15.767 14.071C16.7854 12.6526 17.3332 10.9505 17.3334 9.20443C17.3334 4.60026 13.6042 0.871094 9.00002 0.871094Z" fill="#F5F5F5"/>
</svg>
