<svg width="18" height="18" viewBox="0 0 18 18" fill="none" xmlns="http://www.w3.org/2000/svg">
<path d="M9.00002 0.666016C6.73835 0.666016 6.45419 0.676849 5.56585 0.716016C4.67752 0.757682 4.07169 0.896849 3.54169 1.10352C2.98559 1.31278 2.48191 1.64099 2.06585 2.06518C1.64193 2.48146 1.31377 2.98507 1.10419 3.54102C0.89752 4.07018 0.75752 4.67602 0.716687 5.56185C0.67752 6.45268 0.666687 6.73602 0.666687 9.00018C0.666687 11.2627 0.67752 11.546 0.716687 12.4343C0.758354 13.3227 0.89752 13.9277 1.10419 14.4577C1.31379 15.0136 1.64195 15.5172 2.06585 15.9335C2.48139 16.3579 2.98486 16.6862 3.54085 16.8952C4.07169 17.101 4.67585 17.2418 5.56335 17.2827C6.45335 17.3218 6.73669 17.3327 9.00002 17.3327C11.2634 17.3327 11.5459 17.3227 12.435 17.2827C13.3217 17.241 13.9292 17.101 14.46 16.8952C15.0159 16.6859 15.5193 16.3577 15.935 15.9335C16.3586 15.5171 16.6865 15.0135 16.8959 14.4577C17.1009 13.9277 17.2417 13.3218 17.2834 12.4343C17.3225 11.546 17.3334 11.2627 17.3334 8.99935C17.3334 6.73602 17.3234 6.45268 17.2834 5.56268C17.2417 4.67602 17.1009 4.07018 16.8959 3.54102C16.6863 2.98505 16.3582 2.48142 15.9342 2.06518C15.5183 1.64082 15.0146 1.31259 14.4584 1.10352C13.9275 0.896849 13.3209 0.756849 12.4342 0.716016C11.545 0.676849 11.2625 0.666016 8.99835 0.666016H9.00002ZM8.25335 2.16852H9.00002C11.225 2.16852 11.4892 2.17518 12.3667 2.21602C13.1792 2.25268 13.6209 2.38935 13.915 2.50268C14.3034 2.65352 14.5817 2.83518 14.8734 3.12602C15.165 3.41768 15.345 3.69518 15.4959 4.08435C15.6109 4.37768 15.7459 4.81935 15.7825 5.63185C15.8234 6.50935 15.8317 6.77352 15.8317 8.99768C15.8317 11.221 15.8234 11.486 15.7825 12.3643C15.7459 13.176 15.61 13.6168 15.4959 13.911C15.3624 14.2728 15.1494 14.6001 14.8725 14.8685C14.6037 15.1452 14.2762 15.3579 13.9142 15.491C13.6225 15.6052 13.1809 15.741 12.3667 15.7785C11.4892 15.8177 11.225 15.8277 9.00002 15.8277C6.77502 15.8277 6.51085 15.8185 5.63252 15.7785C4.82002 15.741 4.37919 15.6052 4.08585 15.491C3.72391 15.3577 3.39643 15.145 3.12752 14.8685C2.85018 14.5998 2.63661 14.2723 2.50252 13.9102C2.38919 13.6168 2.25252 13.1752 2.21585 12.3627C2.17669 11.4843 2.16835 11.221 2.16835 8.99518C2.16835 6.77018 2.17669 6.50768 2.21585 5.62935C2.25335 4.81685 2.38919 4.37518 2.50335 4.08185C2.65419 3.69352 2.83585 3.41518 3.12752 3.12352C3.39622 2.84655 3.72374 2.63353 4.08585 2.50018C4.37919 2.38602 4.82002 2.25018 5.63252 2.21268C6.40169 2.17768 6.69919 2.16685 8.25252 2.16602V2.16852H8.25335ZM13.4492 3.55185C13.184 3.55185 12.9296 3.65721 12.7421 3.84474C12.5545 4.03228 12.4492 4.28663 12.4492 4.55185C12.4492 4.81707 12.5545 5.07142 12.7421 5.25896C12.9296 5.44649 13.184 5.55185 13.4492 5.55185C13.7144 5.55185 13.9688 5.44649 14.1563 5.25896C14.3438 5.07142 14.4492 4.81707 14.4492 4.55185C14.4492 4.28663 14.3438 4.03228 14.1563 3.84474C13.9688 3.65721 13.7144 3.55185 13.4492 3.55185ZM9.00002 4.72018C7.86489 4.7025 6.76923 5.13647 5.95408 5.92662C5.13892 6.71678 4.67103 7.79839 4.65335 8.93351C4.63567 10.0686 5.06964 11.1643 5.8598 11.9795C6.64995 12.7946 7.73156 13.2625 8.86669 13.2802C10.0018 13.2979 11.0975 12.8639 11.9126 12.0737C12.7278 11.2836 13.1957 10.202 13.2134 9.06685C13.231 7.93172 12.7971 6.83606 12.0069 6.02091C11.2168 5.20575 10.1351 4.73786 9.00002 4.72018ZM9.00002 6.22102C9.36488 6.22102 9.72616 6.29288 10.0632 6.4325C10.4003 6.57213 10.7066 6.77678 10.9646 7.03477C11.2226 7.29276 11.4272 7.59904 11.5669 7.93613C11.7065 8.27321 11.7784 8.63449 11.7784 8.99935C11.7784 9.3642 11.7065 9.72549 11.5669 10.0626C11.4272 10.3997 11.2226 10.7059 10.9646 10.9639C10.7066 11.2219 10.4003 11.4266 10.0632 11.5662C9.72616 11.7058 9.36488 11.7777 9.00002 11.7777C8.26316 11.7777 7.55648 11.485 7.03544 10.9639C6.5144 10.4429 6.22169 9.73621 6.22169 8.99935C6.22169 8.26249 6.5144 7.55581 7.03544 7.03477C7.55648 6.51373 8.26316 6.22102 9.00002 6.22102Z" fill="#F5F5F5"/>
</svg>
