<svg width="16" height="16" viewBox="0 0 16 16" fill="none" xmlns="http://www.w3.org/2000/svg">
<path d="M10.2066 5.79348C12.0737 7.66252 12.0481 10.659 10.2179 12.4994C10.2144 12.5032 10.2104 12.5072 10.2066 12.511L8.10661 14.611C6.25442 16.4632 3.24102 16.4629 1.38911 14.611C-0.463077 12.7591 -0.463077 9.74536 1.38911 7.89348L2.54867 6.73392C2.85617 6.42642 3.38574 6.6308 3.40161 7.06536C3.42186 7.61917 3.52117 8.17558 3.70442 8.71289C3.76649 8.89483 3.72214 9.09608 3.5862 9.23202L3.17724 9.64098C2.30142 10.5168 2.27395 11.9429 3.14114 12.8272C4.01689 13.7203 5.45633 13.7256 6.3388 12.8432L8.4388 10.7435C9.31977 9.86251 9.31608 8.43858 8.4388 7.5613C8.32314 7.44586 8.20664 7.35617 8.11564 7.29352C8.05126 7.24931 7.99811 7.19067 7.96042 7.12227C7.92273 7.05387 7.90154 6.97762 7.89855 6.89958C7.88617 6.56936 8.00317 6.22908 8.26411 5.96814L8.92205 5.31017C9.09458 5.13764 9.36524 5.11645 9.5653 5.25608C9.79441 5.41606 10.009 5.59589 10.2066 5.79348ZM14.6108 1.38905C12.7589 -0.462891 9.74552 -0.463141 7.89333 1.38905L5.79333 3.48905C5.78958 3.4928 5.78552 3.49686 5.78208 3.50061C3.95189 5.34098 3.92624 8.33751 5.79333 10.2065C5.99092 10.4041 6.20551 10.5839 6.43461 10.7439C6.63467 10.8835 6.90536 10.8623 7.07786 10.6898L7.7358 10.0319C7.99674 9.77092 8.11374 9.43064 8.10136 9.10042C8.09837 9.02238 8.07718 8.94613 8.03949 8.87773C8.0018 8.80933 7.94864 8.75069 7.88427 8.70648C7.79327 8.64383 7.67677 8.55414 7.56111 8.4387C6.68383 7.56142 6.68014 6.13748 7.56111 5.25652L9.66111 3.15683C10.5436 2.27436 11.983 2.27967 12.8588 3.17277C13.726 4.05714 13.6985 5.4832 12.8227 6.35902L12.4137 6.76798C12.2778 6.90392 12.2334 7.10517 12.2955 7.28711C12.4787 7.82442 12.578 8.38083 12.5983 8.93464C12.6142 9.3692 13.1437 9.57358 13.4512 9.26608L14.6108 8.10651C16.463 6.25467 16.463 3.24092 14.6108 1.38905Z" fill="white"/>
</svg>
