<svg width="18" height="18" viewBox="0 0 18 18" fill="none" xmlns="http://www.w3.org/2000/svg">
<path d="M0.666687 1.86018C0.666687 1.19935 1.21502 0.666016 1.89085 0.666016H16.1084C16.7859 0.666016 17.3334 1.20018 17.3334 1.86018V16.1385C17.3334 16.7993 16.7859 17.3327 16.1092 17.3327H1.89169C1.21502 17.3327 0.666687 16.7985 0.666687 16.1385V1.86018ZM5.81585 14.6185V7.09102H3.31419V14.6168H5.81669L5.81585 14.6185ZM4.56585 6.06435C5.43752 6.06435 5.98002 5.48685 5.98002 4.76435C5.96502 4.02518 5.43835 3.46435 4.58252 3.46435C3.72502 3.46352 3.16669 4.02602 3.16669 4.76435C3.16669 5.48685 3.70919 6.06435 4.54919 6.06435H4.56585ZM9.67835 14.6177V10.416C9.67835 10.191 9.69502 9.96602 9.76169 9.80518C9.94169 9.35685 10.3534 8.89102 11.045 8.89102C11.95 8.89102 12.3117 9.58018 12.3117 10.5927V14.6193H14.8125V10.3027C14.8125 7.98935 13.5792 6.91435 11.9334 6.91435C10.6067 6.91435 10.0117 7.64435 9.67835 8.15768V8.18352H9.66169L9.67835 8.15768V7.09102H7.17835C7.20919 7.79768 7.17835 14.6168 7.17835 14.6168H9.67835V14.6177Z" fill="#F5F5F5"/>
</svg>
