<svg width="16" height="12" viewBox="0 0 16 12" fill="none" xmlns="http://www.w3.org/2000/svg">
<path d="M0 2C0 1.46957 0.210714 0.960859 0.585786 0.585786C0.960859 0.210713 1.46957 0 2 0H14C14.5304 0 15.0391 0.210713 15.4142 0.585786C15.7893 0.960859 16 1.46957 16 2V10C16 10.5304 15.7893 11.0391 15.4142 11.4142C15.0391 11.7893 14.5304 12 14 12H2C1.46957 12 0.960859 11.7893 0.585786 11.4142C0.210714 11.0391 0 10.5304 0 10V2ZM2 1C1.73478 1 1.48043 1.10536 1.29289 1.29289C1.10536 1.48043 1 1.73478 1 2V2.21667L8 6.41667L15 2.21667V2C15 1.73478 14.8946 1.48043 14.7071 1.29289C14.5196 1.10536 14.2652 1 14 1H2ZM15 3.38333L10.2917 6.20833L15 9.105V3.38333ZM14.9667 10.2583L9.32667 6.7875L8 7.58333L6.675 6.78833L1.03333 10.2583C1.09025 10.4712 1.21587 10.6593 1.39067 10.7934C1.56547 10.9275 1.77968 11.0001 2 11H14C14.22 11 14.4338 10.9276 14.6084 10.7938C14.783 10.66 14.9086 10.4724 14.9658 10.26L14.9667 10.2583ZM1 9.10583L5.70833 6.20833L1 3.38333V9.10583Z" fill="#F5F5F5"/>
</svg>
