<svg width="36" height="36" viewBox="0 0 36 36" fill="none" xmlns="http://www.w3.org/2000/svg">
<path d="M25.2916 18.0003C25.2916 19.9342 24.5234 21.7889 23.1559 23.1563C21.7885 24.5238 19.9338 25.292 18 25.292C16.0661 25.292 14.2114 24.5238 12.844 23.1563C11.4765 21.7889 10.7083 19.9342 10.7083 18.0003C10.7083 16.0665 11.4765 14.2118 12.844 12.8443C14.2114 11.4769 16.0661 10.7087 18 10.7087C19.9338 10.7087 21.7885 11.4769 23.1559 12.8443C24.5234 14.2118 25.2916 16.0665 25.2916 18.0003ZM18 3.41699C18.2417 3.41699 18.4735 3.51302 18.6445 3.68395C18.8154 3.85488 18.9114 4.08672 18.9114 4.32845V7.97428C18.9114 8.21602 18.8154 8.44785 18.6445 8.61878C18.4735 8.78971 18.2417 8.88574 18 8.88574C17.7582 8.88574 17.5264 8.78971 17.3555 8.61878C17.1845 8.44785 17.0885 8.21602 17.0885 7.97428V4.32845C17.0885 4.08672 17.1845 3.85488 17.3555 3.68395C17.5264 3.51302 17.7582 3.41699 18 3.41699ZM18 27.1149C18.1197 27.1147 18.2383 27.1382 18.349 27.1839C18.4597 27.2296 18.5602 27.2968 18.6449 27.3814C18.7296 27.4661 18.7967 27.5667 18.8424 27.6773C18.8882 27.788 18.9116 27.9066 18.9114 28.0264V31.6722C18.9114 31.9139 18.8154 32.1458 18.6445 32.3167C18.4735 32.4876 18.2417 32.5837 18 32.5837C17.7582 32.5837 17.5264 32.4876 17.3555 32.3167C17.1845 32.1458 17.0885 31.9139 17.0885 31.6722V28.0264C17.0883 27.9066 17.1118 27.788 17.1575 27.6773C17.2032 27.5667 17.2704 27.4661 17.355 27.3814C17.4397 27.2968 17.5403 27.2296 17.6509 27.1839C17.7616 27.1382 17.8802 27.1147 18 27.1149ZM32.5833 18.0003C32.5835 18.1201 32.56 18.2387 32.5143 18.3494C32.4686 18.46 32.4014 18.5606 32.3168 18.6453C32.2321 18.7299 32.1315 18.7971 32.0209 18.8428C31.9102 18.8885 31.7916 18.912 31.6718 18.9118H28.026C27.7843 18.9118 27.5524 18.8158 27.3815 18.6448C27.2106 18.4739 27.1145 18.2421 27.1145 18.0003C27.1145 17.7586 27.2106 17.5268 27.3815 17.3558C27.5524 17.1849 27.7843 17.0889 28.026 17.0889H31.6718C31.7916 17.0887 31.9102 17.1121 32.0209 17.1579C32.1315 17.2036 32.2321 17.2707 32.3168 17.3554C32.4014 17.4401 32.4686 17.5406 32.5143 17.6513C32.56 17.762 32.5835 17.8806 32.5833 18.0003ZM8.88538 18.0003C8.88538 18.2421 8.78935 18.4739 8.61842 18.6448C8.44748 18.8158 8.21565 18.9118 7.97392 18.9118H4.32808C4.08635 18.9118 3.85452 18.8158 3.68359 18.6448C3.51265 18.4739 3.41663 18.2421 3.41663 18.0003C3.41663 17.7586 3.51265 17.5268 3.68359 17.3558C3.85452 17.1849 4.08635 17.0889 4.32808 17.0889H7.97392C8.21565 17.0889 8.44748 17.1849 8.61842 17.3558C8.78935 17.5268 8.88538 17.7586 8.88538 18.0003ZM28.3118 7.68845C28.4824 7.85933 28.5781 8.09089 28.5781 8.3323C28.5781 8.57372 28.4824 8.80528 28.3118 8.97616L25.735 11.5574C25.5622 11.7211 25.3323 11.8108 25.0943 11.8075C24.8563 11.8041 24.629 11.708 24.4609 11.5395C24.2927 11.371 24.1971 11.1435 24.1943 10.9055C24.1914 10.6674 24.2817 10.4378 24.4458 10.2653L27.0227 7.68845C27.1073 7.60379 27.2078 7.53663 27.3184 7.49081C27.429 7.44499 27.5475 7.42141 27.6672 7.42141C27.787 7.42141 27.9055 7.44499 28.0161 7.49081C28.1267 7.53663 28.2272 7.60379 28.3118 7.68845ZM11.5541 24.4462C11.6388 24.5308 11.7059 24.6313 11.7518 24.7419C11.7976 24.8525 11.8212 24.971 11.8212 25.0907C11.8212 25.2105 11.7976 25.329 11.7518 25.4396C11.7059 25.5502 11.6388 25.6507 11.5541 25.7353L8.97579 28.3107C8.80319 28.4733 8.57405 28.5622 8.33699 28.5585C8.09993 28.5549 7.87362 28.4591 7.70607 28.2913C7.53852 28.1236 7.44292 27.8972 7.43956 27.6601C7.4362 27.423 7.52535 27.194 7.68808 27.0216L10.265 24.4447C10.3496 24.36 10.4501 24.2929 10.5607 24.2471C10.6713 24.2012 10.7898 24.1777 10.9095 24.1777C11.0293 24.1777 11.1478 24.2012 11.2584 24.2471C11.369 24.2929 11.4695 24.3615 11.5541 24.4462ZM28.3118 28.3122C28.2272 28.3969 28.1267 28.464 28.0161 28.5098C27.9055 28.5557 27.787 28.5792 27.6672 28.5792C27.5475 28.5792 27.429 28.5557 27.3184 28.5098C27.2078 28.464 27.1073 28.3969 27.0227 28.3122L24.4458 25.7353C24.2748 25.5644 24.1788 25.3325 24.1788 25.0907C24.1788 24.849 24.2748 24.6171 24.4458 24.4462C24.6167 24.2752 24.8486 24.1792 25.0904 24.1792C25.3321 24.1792 25.564 24.2752 25.735 24.4462L28.3118 27.023C28.3965 27.1077 28.4637 27.2082 28.5095 27.3188C28.5553 27.4294 28.5789 27.5479 28.5789 27.6676C28.5789 27.7873 28.5553 27.9059 28.5095 28.0165C28.4637 28.1271 28.3965 28.2276 28.3118 28.3122ZM11.5541 11.5559C11.4695 11.6406 11.369 11.7078 11.2584 11.7536C11.1478 11.7994 11.0293 11.823 10.9095 11.823C10.7898 11.823 10.6713 11.7994 10.5607 11.7536C10.4501 11.7078 10.3496 11.6406 10.265 11.5559L7.68954 8.97616C7.59868 8.89307 7.52558 8.79244 7.47468 8.68033C7.42377 8.56823 7.39611 8.44697 7.39336 8.32387C7.3906 8.20078 7.41282 8.0784 7.45866 7.96413C7.50451 7.84986 7.57303 7.74606 7.66009 7.659C7.74715 7.57193 7.85095 7.50341 7.96522 7.45757C8.07949 7.41173 8.20187 7.38951 8.32496 7.39227C8.44806 7.39502 8.56932 7.42268 8.68143 7.47359C8.79353 7.52449 8.89417 7.59758 8.97725 7.68845L11.5541 10.2653C11.639 10.35 11.7064 10.4506 11.7523 10.5613C11.7982 10.672 11.8219 10.7907 11.8219 10.9106C11.8219 11.0305 11.7982 11.1492 11.7523 11.26C11.7064 11.3707 11.639 11.4713 11.5541 11.5559Z" fill="#F9F9F9"/>
<circle cx="18" cy="17.9997" r="6.92708" fill="#313031" stroke="#F9F9F9" stroke-width="0.729167"/>
</svg>
